<?xml version="1.0" standalone="no"?>
<!DOCTYPE svg PUBLIC "-//W3C//DTD SVG 20010904//EN"
 "http://www.w3.org/TR/2001/REC-SVG-20010904/DTD/svg10.dtd">
<svg version="1.0" xmlns="http://www.w3.org/2000/svg"
 width="960.000000pt" height="960.000000pt" viewBox="0 0 960.000000 960.000000"
 preserveAspectRatio="xMidYMid meet">

<g transform="translate(0.000000,960.000000) scale(0.100000,-0.100000)"
fill="#000000" stroke="none">
<path d="M3284 7945 c-7 -5 -65 -86 -128 -180 l-116 -170 137 -8 c76 -5 170
-6 208 -2 l70 6 42 62 c23 34 78 115 122 180 43 64 76 117 73 117 -4 0 -94 1
-201 2 -118 2 -199 -1 -207 -7z"/>
<path d="M1866 7590 c-92 -20 -113 -26 -206 -67 -238 -105 -409 -309 -481
-574 -18 -68 -23 -110 -23 -224 0 -151 17 -241 71 -369 82 -196 265 -375 464
-455 212 -85 509 -94 714 -22 29 10 56 16 59 13 12 -11 7 -622 -5 -622 -6 0
-31 18 -56 40 -68 59 -138 82 -266 88 -138 5 -210 -8 -316 -60 -193 -95 -320
-276 -352 -504 -18 -129 1 -325 40 -409 5 -11 18 -41 30 -67 50 -113 175 -238
303 -303 37 -18 110 -43 162 -55 82 -19 115 -22 243 -17 166 5 229 19 341 74
124 61 192 121 266 233 53 80 92 175 105 260 7 40 11 298 11 680 l0 615 -93
45 c-235 113 -393 257 -487 443 -7 15 -17 27 -21 27 -5 0 -32 -18 -61 -39 -69
-53 -153 -76 -250 -68 -169 12 -294 120 -351 302 -30 98 -30 262 2 354 58 173
177 269 344 279 103 6 186 -16 255 -69 29 -21 56 -39 60 -39 4 0 14 15 21 33
39 89 149 220 246 296 l30 23 -30 24 c-69 56 -244 124 -365 144 -104 16 -303
11 -404 -10z m440 -2651 c39 -12 106 -74 130 -119 26 -52 32 -187 9 -246 -53
-139 -205 -202 -334 -138 -98 49 -148 153 -137 283 3 41 10 77 15 80 4 3 11
15 15 26 8 26 43 64 81 91 57 40 137 48 221 23z"/>
<path d="M4105 7538 c-3 -7 -4 -373 -3 -813 l3 -800 95 -7 c117 -10 252 -41
334 -77 33 -16 66 -29 71 -29 6 -1 12 92 15 255 l5 258 40 3 c22 2 63 1 92 -3
51 -6 53 -8 85 -63 18 -31 38 -64 43 -73 6 -9 22 -38 36 -65 61 -113 127 -183
214 -227 76 -38 152 -48 325 -45 l155 3 0 190 0 190 -55 2 c-125 6 -131 10
-206 130 l-45 72 74 74 c59 59 83 93 119 168 25 52 52 122 58 157 15 75 7 212
-16 275 -8 23 -18 51 -21 62 -12 39 -74 127 -125 176 -107 104 -238 166 -397
189 -104 15 -890 13 -896 -2z m839 -422 c23 -13 52 -39 66 -58 22 -30 25 -42
25 -125 0 -87 -1 -93 -31 -130 -58 -72 -90 -83 -246 -83 l-138 0 0 210 0 210
142 0 c131 0 144 -2 182 -24z"/>
<path d="M3065 7416 c-145 -33 -241 -81 -341 -168 -78 -68 -116 -120 -165
-221 -49 -102 -69 -194 -69 -317 0 -126 20 -214 74 -325 100 -204 291 -344
530 -386 93 -16 291 -6 381 18 98 27 222 94 293 159 253 228 306 638 121 924
-96 149 -223 244 -404 302 -80 26 -333 34 -420 14z m249 -371 c44 -7 77 -25
124 -69 134 -123 134 -409 0 -532 -69 -63 -85 -69 -194 -69 -99 0 -102 1 -151
34 -100 68 -150 184 -140 325 9 139 67 244 162 293 30 16 118 32 145 28 8 -2
33 -6 54 -10z"/>
<path d="M5738 6993 c-24 -4 -28 -11 -38 -61 -30 -153 -72 -262 -136 -353 -18
-26 -30 -50 -27 -53 4 -3 147 -6 318 -6 l312 0 7 -57 c40 -339 176 -580 389
-690 82 -43 153 -57 257 -50 159 9 271 65 429 213 46 44 89 82 96 86 9 5 81
-62 219 -203 l205 -210 43 24 c24 13 62 35 84 48 23 13 96 56 163 94 67 39
120 75 119 81 -2 7 -129 141 -283 299 -154 158 -334 343 -400 411 -66 68 -124
124 -129 124 -10 0 -45 -32 -319 -295 -103 -99 -201 -186 -217 -194 -76 -37
-132 42 -175 244 -16 76 -18 163 -11 485 l1 65 -440 1 c-242 1 -452 -1 -467
-3z"/>
<path d="M3868 5790 c-208 -33 -416 -137 -544 -272 -217 -228 -302 -565 -220
-874 26 -97 77 -215 122 -281 70 -100 216 -239 274 -261 8 -3 17 -8 20 -12 13
-17 155 -75 240 -98 85 -23 115 -25 275 -26 182 0 220 5 350 49 322 109 550
382 602 720 25 163 9 316 -49 475 -48 130 -102 214 -203 315 -125 125 -266
204 -440 246 -92 22 -337 33 -427 19z m298 -447 c63 -21 123 -62 169 -115 49
-57 70 -101 96 -195 18 -64 21 -96 17 -178 -14 -256 -144 -425 -350 -454 -262
-36 -456 145 -475 444 -9 142 36 293 114 385 39 45 126 105 173 118 58 17 201
14 256 -5z"/>
<path d="M5813 5325 c-86 -43 -133 -123 -133 -225 0 -71 15 -112 60 -164 67
-76 171 -104 274 -74 55 16 140 101 155 154 37 134 -17 262 -133 315 -62 28
-159 25 -223 -6z"/>
<path d="M2902 4109 c-50 -56 -134 -114 -218 -152 -64 -28 -211 -67 -256 -67
l-28 0 0 -527 c0 -291 5 -567 10 -614 33 -289 185 -506 435 -623 124 -58 255
-80 434 -73 256 10 426 84 580 254 75 82 142 213 172 333 29 117 23 358 -10
465 -52 163 -149 296 -278 380 -132 87 -226 115 -387 115 -166 0 -236 -23
-343 -110 -26 -22 -51 -36 -55 -32 -4 4 -9 163 -10 353 l-3 346 -43 -48z m443
-1020 c222 -104 194 -486 -41 -555 -128 -37 -261 26 -314 149 -27 62 -32 177
-11 250 17 58 76 128 133 156 60 29 171 29 233 0z"/>
<path d="M4845 4136 c-102 -25 -181 -82 -244 -173 -18 -26 -104 -254 -273
-723 -10 -30 -60 -165 -110 -300 -49 -135 -117 -319 -150 -410 -32 -91 -64
-176 -69 -189 -12 -30 -7 -36 20 -21 20 10 128 45 321 104 47 14 119 33 160
42 41 9 80 20 86 25 6 5 19 37 29 72 34 124 68 232 78 245 7 9 74 12 272 12
198 0 265 -3 273 -12 5 -7 23 -56 39 -108 l29 -95 67 0 c37 0 157 2 266 3
l199 2 -34 92 c-19 51 -33 97 -30 103 2 6 50 16 108 23 423 50 797 306 995
682 22 41 48 95 57 120 10 25 20 50 23 57 4 10 -79 63 -227 145 -25 14 -73 42
-107 62 -68 40 -93 45 -93 19 0 -26 -26 -96 -61 -166 -82 -163 -207 -289 -364
-367 -142 -71 -201 -84 -373 -85 l-144 0 -69 185 c-76 203 -109 294 -141 385
-40 113 -74 159 -161 216 -96 62 -250 85 -372 55z m187 -655 c26 -79 49 -155
50 -168 l3 -25 -120 0 c-103 0 -120 2 -119 16 3 31 98 311 109 318 5 4 15 6
20 5 6 -2 31 -68 57 -146z"/>
<path d="M7336 3408 c-37 -86 -98 -188 -169 -283 -119 -157 -387 -398 -584
-524 -39 -25 -71 -50 -70 -55 2 -5 75 -23 162 -41 88 -18 217 -49 287 -69 69
-20 131 -36 136 -36 16 0 171 136 261 229 147 151 252 290 344 456 79 143 80
145 18 184 -28 17 -53 31 -56 31 -2 0 -28 14 -57 32 -68 40 -240 138 -243 138
-1 0 -14 -28 -29 -62z"/>
<path d="M4101 2109 c-103 -20 -161 -94 -169 -215 -6 -95 25 -169 89 -211 39
-26 50 -28 133 -28 80 0 95 3 128 25 36 24 82 96 72 112 -3 4 -31 8 -62 8 -50
0 -59 -3 -67 -22 -14 -32 -62 -53 -93 -42 -67 24 -95 150 -52 238 18 37 28 47
56 52 38 7 83 -15 91 -45 6 -22 123 -17 123 6 0 48 -88 123 -146 123 -18 0
-38 2 -46 4 -7 2 -33 0 -57 -5z"/>
<path d="M4565 1988 c-118 -376 -115 -342 -30 -336 47 3 49 4 59 43 l12 40 78
0 c79 0 79 0 89 -30 5 -16 14 -36 20 -42 10 -14 113 -18 120 -5 2 4 -28 106
-68 227 l-73 220 -84 3 -84 3 -39 -123z m149 -65 l24 -83 -39 0 c-22 0 -42 1
-46 3 -15 4 0 108 23 167 7 18 7 18 38 -87z"/>
<path d="M5049 2106 c-2 -2 -2 -105 1 -228 l5 -223 55 0 55 0 3 78 3 77 48 0
c128 0 203 56 203 150 0 68 -31 114 -91 135 -41 14 -270 23 -282 11z m229
-102 c26 -18 30 -65 6 -85 -9 -7 -37 -13 -62 -13 l-47 -1 -3 44 c-2 24 -1 50
2 57 7 19 76 18 104 -2z"/>
<path d="M5572 1883 l3 -228 60 0 60 0 0 225 0 225 -63 3 -62 3 2 -228z"/>
<path d="M5837 2103 c-4 -3 -7 -23 -7 -44 l0 -38 63 -3 62 -3 6 -180 c3 -99 6
-181 7 -182 1 -2 29 -3 62 -3 l60 0 2 183 3 182 63 3 62 3 0 44 0 45 -188 0
c-104 0 -192 -3 -195 -7z"/>
<path d="M6400 2093 c0 -10 -7 -35 -15 -58 -53 -147 -116 -368 -107 -377 5 -5
31 -8 58 -6 48 3 49 4 62 46 l14 42 78 0 78 0 14 -42 13 -43 63 -3 c67 -3 72
2 53 50 -6 13 -35 102 -66 198 -32 96 -61 183 -66 193 -8 14 -24 17 -94 17
-74 0 -85 -2 -85 -17z m106 -121 c3 -20 13 -56 21 -80 9 -23 14 -44 12 -47 -3
-2 -25 -5 -49 -7 -44 -3 -45 -3 -43 27 3 48 34 155 44 150 4 -3 11 -22 15 -43z"/>
<path d="M6854 2097 c-2 -7 -3 -109 -2 -227 l3 -215 162 -3 162 -2 11 40 c6
22 8 45 4 51 -4 6 -45 9 -107 7 l-102 -3 -3 183 -2 182 -61 0 c-39 0 -61 -4
-65 -13z"/>
</g>
</svg>
