<svg width="300" height="100" viewBox="0 0 300 100" fill="none" xmlns="http://www.w3.org/2000/svg">
<path d="M40 70C25 70 15 60 15 45C15 30 25 20 40 20C50 20 58 25 62 32L54 40C51 36 47 32 40 32C33 32 28 38 28 45C28 52 33 58 40 58C47 58 52 54 55 50L63 58C58 65 50 70 40 70Z" fill="#004884"/>
<path d="M75 45C75 30 85 20 100 20C115 20 125 30 125 45C125 60 115 70 100 70C85 70 75 60 75 45ZM112 45C112 37 108 32 100 32C92 32 88 37 88 45C88 53 92 58 100 58C108 58 112 53 112 45Z" fill="#004884"/>
<path d="M135 22H158C168 22 175 28 175 38C175 44 171 49 165 52L177 70H163L153 54H148V70H135V22ZM158 42C162 42 163 40 163 38C163 36 162 34 158 34H148V42H158Z" fill="#004884"/>
<path d="M185 22H205C218 22 225 32 225 46C225 60 218 70 205 70H185V22ZM205 58C210 58 212 54 212 46C212 38 210 34 205 34H198V58H205Z" fill="#004884"/>
<path d="M235 45C235 30 245 20 260 20C275 20 285 30 285 45C285 60 275 70 260 70C245 70 235 60 235 45ZM272 45C272 37 268 32 260 32C252 32 248 37 248 45C248 53 252 58 260 58C268 58 272 53 272 45Z" fill="#004884"/>
<rect x="0" y="85" width="100" height="8" fill="#C8102E"/>
<rect x="110" y="85" width="100" height="8" fill="#F1B434"/>
</svg>
